<svg id="Layer_1" data-name="Layer 1" xmlns="http://www.w3.org/2000/svg" xmlns:xlink="http://www.w3.org/1999/xlink" viewBox="0 0 512 512"><defs><style>.cls-1,.cls-9{fill:none;}.cls-2{clip-path:url(#clip-path);}.cls-3{fill:url(#linear-gradient);}.cls-4{fill:#fff;}.cls-5{fill:#54bce8;}.cls-6{fill:#fcee21;}.cls-7{fill:#00bf00;}.cls-8{fill:#fbae3c;}.cls-9{stroke:#000;stroke-linecap:round;stroke-linejoin:round;stroke-width:0.5px;}</style><clipPath id="clip-path"><path class="cls-1" d="M117.2,241.84a23.06,23.06,0,0,1,5.67-2.1,30.32,30.32,0,0,1,7.66-1,27.7,27.7,0,0,1,9.76,1.6q4.23,1.6,5.45,5,2,5.73,4.3,13.34t4.63,15.7q2.31,8.1,4.52,16T163,304.32a9,9,0,0,1-4,2.48,18.76,18.76,0,0,1-6.29.94,19.46,19.46,0,0,1-4.46-.44,7.83,7.83,0,0,1-3-1.32,6.46,6.46,0,0,1-1.88-2.32,19.8,19.8,0,0,1-1.27-3.3l-2-7.61H120.28c-.59,2.21-1.17,4.49-1.76,6.84s-1.18,4.63-1.76,6.83a30.82,30.82,0,0,1-3.25.94,19.6,19.6,0,0,1-4.14.38c-3.74,0-6.52-.64-8.32-1.93a6.19,6.19,0,0,1-2.7-5.34,11.36,11.36,0,0,1,.44-3.09c.3-1,.63-2.24,1-3.64.52-2,1.23-4.44,2.15-7.38s1.93-6.12,3-9.53,2.28-6.93,3.53-10.53,2.43-7,3.53-10.19,2.11-6,3-8.54S116.68,243.16,117.2,241.84Zm13.22,14.21q-1.54,4.63-3.47,10.31t-3.47,11.51h13.67q-1.54-5.94-3.15-11.62t-2.92-10.2ZM231.81,306.2a30.55,30.55,0,0,1-3.8.66,40.48,40.48,0,0,1-5.12.33,22.81,22.81,0,0,1-4.47-.39,7.86,7.86,0,0,1-3.25-1.37,5.94,5.94,0,0,1-2-2.76,13.45,13.45,0,0,1-.66-4.63V280.85H191.37V306.2a30.91,30.91,0,0,1-3.8.66,40.63,40.63,0,0,1-5.13.33,22.63,22.63,0,0,1-4.46-.39,7.81,7.81,0,0,1-3.25-1.37,5.89,5.89,0,0,1-2-2.76,13.45,13.45,0,0,1-.66-4.63V239.85c.81-.14,2.09-.34,3.86-.6a34.71,34.71,0,0,1,5.07-.39,22.7,22.7,0,0,1,4.46.39,7.81,7.81,0,0,1,3.25,1.38,6,6,0,0,1,2,2.75,13.49,13.49,0,0,1,.66,4.63v17.63h21.16V239.85c.8-.14,2.09-.34,3.85-.6a34.92,34.92,0,0,1,5.07-.39,22.81,22.81,0,0,1,4.47.39,7.87,7.87,0,0,1,3.25,1.38,6,6,0,0,1,2,2.75,13.49,13.49,0,0,1,.66,4.63Zm24.58.77a9.51,9.51,0,0,1-10.25-10.25v-57c.81-.14,2.09-.35,3.86-.6a34.71,34.71,0,0,1,5.07-.39,22.7,22.7,0,0,1,4.46.39,7.81,7.81,0,0,1,3.25,1.37,6,6,0,0,1,2,2.76,13.22,13.22,0,0,1,.67,4.63v43.53h25.23a14.15,14.15,0,0,1,1.44,3.25,13.72,13.72,0,0,1,.66,4.24q0,4.41-1.88,6.23a6.82,6.82,0,0,1-4.95,1.82Zm46.28-56.87a9.53,9.53,0,0,1,10.25-10.25h36.37a13.72,13.72,0,0,1,1.38,3.2,14.39,14.39,0,0,1,.61,4.19q0,4.19-1.82,5.95a6.63,6.63,0,0,1-4.8,1.76H321.41V265.2h24.8a14.4,14.4,0,0,1,2,7.27c0,2.8-.59,4.78-1.76,6a6.44,6.44,0,0,1-4.74,1.76H321.41v11.57h28.32a12.76,12.76,0,0,1,1.38,3.2,14.37,14.37,0,0,1,.61,4.18q0,4.2-1.82,6a6.49,6.49,0,0,1-4.8,1.82H312.92a9.51,9.51,0,0,1-10.25-10.25Zm60.4,0a9.51,9.51,0,0,1,10.25-10.25h36.36a12.92,12.92,0,0,1,1.38,3.2,14.39,14.39,0,0,1,.61,4.19q0,4.19-1.82,5.95a6.61,6.61,0,0,1-4.79,1.76H381.8V265.2h24.8a14.13,14.13,0,0,1,2,7.27c0,2.8-.59,4.78-1.76,6a6.44,6.44,0,0,1-4.74,1.76H381.8v11.57h28.33a13.15,13.15,0,0,1,1.37,3.2,14,14,0,0,1,.61,4.18q0,4.2-1.82,6A6.48,6.48,0,0,1,405.5,307H373.32a9.5,9.5,0,0,1-10.25-10.25Zm87.72,5.18H423.68a14.09,14.09,0,0,1-1.43-3.3,14.32,14.32,0,0,1-.67-4.41c0-2.87.65-4.92,1.93-6.17a6.91,6.91,0,0,1,5-1.88h41.1a13,13,0,0,1,4.85,10.58,12.8,12.8,0,0,1-1.26,5.46,24.32,24.32,0,0,1-3.26,5.12l-25,30.2h28.21a15.74,15.74,0,0,1,2.1,7.71c0,2.87-.65,4.93-1.93,6.18a6.9,6.9,0,0,1-5,1.87H424.89a11.51,11.51,0,0,1-3.09-4.19,14.5,14.5,0,0,1-1.21-6.06,12.45,12.45,0,0,1,1.44-5.62,28.29,28.29,0,0,1,3.41-5.29ZM60.08,238.52H36.74v69.22H60.08c22.25,0,33.53-12.46,33.53-34.61S82.33,238.52,60.08,238.52Z"/></clipPath><linearGradient id="linear-gradient" x1="-48" y1="273" x2="489" y2="273" gradientUnits="userSpaceOnUse"><stop offset="0" stop-color="#877ac5"/><stop offset="0.03" stop-color="#7686bc"/><stop offset="0.09" stop-color="#579bac"/><stop offset="0.15" stop-color="#3bae9e"/><stop offset="0.23" stop-color="#25bd93"/><stop offset="0.32" stop-color="#14c88a"/><stop offset="0.42" stop-color="#09d084"/><stop offset="0.58" stop-color="#02d581"/><stop offset="1" stop-color="#00d680"/></linearGradient></defs><g class="cls-2"><rect class="cls-3" x="-48" y="229" width="537" height="88"/></g><path class="cls-4" d="M65,267.1c2.94-1.37,3.87-4.13,4.66-6.92,1.34-4.76.92-9.67.73-15,9.09,16.34,4.19,44.48-8.3,59.59.31-3,.72-5.81.88-8.65.09-1.78,0-3.75-1.86-4.7s-3.7,0-5.3,1c-2.84,1.87-4.76,4.63-6.78,7.29-.38.5-.63,1.22-1.88,1.08,1.11-5.84,3.28-11.24,7.69-15.1,5.87-5.13,3.93-10.35-2.23-14.17-3.62-2.25-7.74-3.21-12.35-4.15,2-1.64,4-1.56,5.88-1.42a48.29,48.29,0,0,1,10.4,2.26c1.93.59,3.87,1.09,5.84.13A5.29,5.29,0,0,0,65,267.1Z"/><path class="cls-4" d="M65,267.1a5.29,5.29,0,0,1-2.62,1.25c-6.4-.12-9.47-2.28-10-7a7.71,7.71,0,0,1,3.2-7.58,26,26,0,0,0,4.89-4c1.56-1.84,2.69-.9,2.9.84a6.52,6.52,0,0,0,2.38,4.11C68.82,257.78,68.49,262,65,267.1Z"/><path class="cls-5" d="M76.08,251.74a13.23,13.23,0,0,1,1.7-8.9c2.74-4.35,1.13-9.88-3.25-12.63a102.74,102.74,0,0,1-11.34-8c-1.43-1.2-1.08-1.77.43-2.35a38.91,38.91,0,0,0,4.94-2.17c1.68-.94,2.42-.38,3.1,1.22,1.4,3.32,2.91,6.59,4.47,9.83,1,2,2.17,3.86,3.12,5.85,1.55,3.24,1.78,6.41-.36,9.64A21.2,21.2,0,0,0,76.08,251.74Z"/><path class="cls-6" d="M78.63,230.33c-.65,0-.75-.5-.91-.85-1.77-3.9-3.5-7.83-5.3-11.71-.52-1.14-.31-1.75.86-2.23,2-.82,3.91-1.77,5.87-2.64a1.5,1.5,0,0,1,1-.19c.41.14.24.56.14.89-1.37,4.71-1.34,9.55-1.38,14.39A4.53,4.53,0,0,1,78.63,230.33Z"/><path class="cls-7" d="M65.22,205.07a47.81,47.81,0,0,1,4.61,9.75,1.13,1.13,0,0,1-.75,1.49q-3.19,1.49-6.4,2.93c-.7.31-1.39.22-1.14-.73C62.72,214,64,209.55,65.22,205.07Z"/><path class="cls-8" d="M67.1,204.26c3.47,3.07,7.6,4.87,11.88,6.38,1.11.39.87.94,0,1.33-2.19,1-4.4,2-6.61,2.93-.56.25-1.15.27-1.42-.36-1.45-3.3-2.86-6.62-4.29-9.93Z"/><path d="M130,363.61l-4.36-15.21,0-.07c0-.12.08-.18.22-.18h.76a.25.25,0,0,1,.25.18l3.71,13a.05.05,0,0,0,0,0,.07.07,0,0,0,.06,0l3.44-13a.23.23,0,0,1,.24-.2h.78a.23.23,0,0,1,.25.2l3.55,13s0,0,.06,0a.05.05,0,0,0,0,0l3.75-13a.25.25,0,0,1,.25-.18h.71a.19.19,0,0,1,.17.07.21.21,0,0,1,0,.18l-4.36,15.21a.25.25,0,0,1-.24.17h-.79a.22.22,0,0,1-.24-.2l-3.51-13.24s0,0,0,0a.06.06,0,0,0-.06,0l-3.48,13.24a.23.23,0,0,1-.25.2h-.74A.24.24,0,0,1,130,363.61Z"/><path d="M156,362.43a3.32,3.32,0,0,0,1.18-1.33.2.2,0,0,1,.29-.11l.58.29c.13.08.17.17.11.29a3.89,3.89,0,0,1-1.55,1.74,4.62,4.62,0,0,1-2.49.65,4.51,4.51,0,0,1-2.66-.76,3.8,3.8,0,0,1-1.5-2.07,5.75,5.75,0,0,1-.24-1.26,16.79,16.79,0,0,1-.07-1.74q0-1.1,0-1.65a6.38,6.38,0,0,1,.15-1,4,4,0,0,1,1.46-2.25,4.87,4.87,0,0,1,5.64.1,4.22,4.22,0,0,1,1.36,2.62,7,7,0,0,1,.09,1c0,.38,0,.85,0,1.41,0,.15-.07.23-.22.23h-7.28a.08.08,0,0,0-.09.09,10.48,10.48,0,0,0,.11,1.89,2.91,2.91,0,0,0,1.11,1.74,3.59,3.59,0,0,0,2.18.63A3.23,3.23,0,0,0,156,362.43Zm-5.19-5a.08.08,0,0,0,.09.09h6.23a.08.08,0,0,0,.09-.09,9.67,9.67,0,0,0-.11-1.67,3,3,0,0,0-1.07-1.73,3.5,3.5,0,0,0-4,0,2.88,2.88,0,0,0-1,1.69A9.21,9.21,0,0,0,150.84,357.46Z"/><path d="M166.34,363.56V348.37a.2.2,0,0,1,.22-.22h.74a.2.2,0,0,1,.22.22v15.19a.19.19,0,0,1-.22.22h-.74A.19.19,0,0,1,166.34,363.56Z"/><path d="M178.16,349.83a3.35,3.35,0,0,0-.48,2v.58a.08.08,0,0,0,.09.09h2.62a.2.2,0,0,1,.22.22v.65a.2.2,0,0,1-.22.22h-2.62a.08.08,0,0,0-.09.09v9.85a.19.19,0,0,1-.22.22h-.74a.19.19,0,0,1-.22-.22v-9.85a.08.08,0,0,0-.09-.09h-1.47c-.15,0-.23-.07-.23-.22v-.65c0-.15.08-.22.23-.22h1.47a.08.08,0,0,0,.09-.09v-.63a6.07,6.07,0,0,1,.3-2.1,2.15,2.15,0,0,1,1-1.17,4.35,4.35,0,0,1,2-.39h.58a.2.2,0,0,1,.23.22V349c0,.15-.08.22-.23.22H180A2.15,2.15,0,0,0,178.16,349.83Z"/><path d="M194.39,353.36a3.7,3.7,0,0,1,1,2.74v7.46c0,.15-.08.22-.23.22h-.73c-.15,0-.23-.07-.23-.22v-1.05a.09.09,0,0,0,0-.07s0,0-.08,0a3.61,3.61,0,0,1-1.51,1.11,5.25,5.25,0,0,1-2.06.38,4.35,4.35,0,0,1-2.62-.78,2.77,2.77,0,0,1-1.07-2.39,3.13,3.13,0,0,1,1.23-2.61,5.34,5.34,0,0,1,3.37-1h2.68a.08.08,0,0,0,.09-.09v-1a2.74,2.74,0,0,0-.7-2,2.83,2.83,0,0,0-2.16-.74,3.43,3.43,0,0,0-1.87.47,2,2,0,0,0-.92,1.25.24.24,0,0,1-.27.2l-.78-.11c-.16,0-.23-.09-.2-.18a2.85,2.85,0,0,1,1.31-1.94,4.85,4.85,0,0,1,2.76-.74A4.11,4.11,0,0,1,194.39,353.36Zm-1.2,8.88a2.17,2.17,0,0,0,1-1.92v-2a.08.08,0,0,0-.09-.09h-2.57a4.37,4.37,0,0,0-2.55.67,2.13,2.13,0,0,0-1,1.85,1.93,1.93,0,0,0,.76,1.66,3.19,3.19,0,0,0,1.94.56A4.29,4.29,0,0,0,193.19,362.24Z"/><path d="M209,352.71c.12,0,.16.14.13.29l-.2.71a.19.19,0,0,1-.29.14,2.63,2.63,0,0,0-1.11-.16,2.67,2.67,0,0,0-2.07.95,3.32,3.32,0,0,0-.81,2.27v6.65c0,.15-.08.22-.23.22h-.73c-.15,0-.23-.07-.23-.22V352.75c0-.15.08-.22.23-.22h.73c.15,0,.23.07.23.22v1.52s0,.07,0,.08,0,0,.06-.06a3.64,3.64,0,0,1,1.21-1.36,3.13,3.13,0,0,1,1.76-.49A2.86,2.86,0,0,1,209,352.71Z"/><path d="M221.84,362.43A3.32,3.32,0,0,0,223,361.1a.2.2,0,0,1,.29-.11l.58.29c.13.08.17.17.11.29a3.89,3.89,0,0,1-1.55,1.74A4.62,4.62,0,0,1,220,364a4.53,4.53,0,0,1-2.66-.76,3.8,3.8,0,0,1-1.5-2.07,5.75,5.75,0,0,1-.24-1.26,16.79,16.79,0,0,1-.07-1.74c0-.73,0-1.28,0-1.65a6.4,6.4,0,0,1,.14-1,4,4,0,0,1,1.46-2.25,4.87,4.87,0,0,1,5.64.1,4.17,4.17,0,0,1,1.36,2.62,7,7,0,0,1,.09,1q0,.57,0,1.41a.21.21,0,0,1-.23.23h-7.28a.08.08,0,0,0-.09.09,10.48,10.48,0,0,0,.11,1.89,2.91,2.91,0,0,0,1.11,1.74,3.59,3.59,0,0,0,2.18.63A3.21,3.21,0,0,0,221.84,362.43Zm-5.19-5a.08.08,0,0,0,.09.09H223a.08.08,0,0,0,.09-.09,9.67,9.67,0,0,0-.11-1.67,3,3,0,0,0-1.07-1.73,3.49,3.49,0,0,0-4,0,2.85,2.85,0,0,0-1,1.69A9.21,9.21,0,0,0,216.65,357.46Z"/><path d="M251.13,349.2h-8.44a.08.08,0,0,0-.09.09v6a.08.08,0,0,0,.09.09h6a.2.2,0,0,1,.22.22v.61a.2.2,0,0,1-.22.22h-6a.08.08,0,0,0-.09.09v7a.19.19,0,0,1-.22.22h-.74a.19.19,0,0,1-.22-.22V348.37a.2.2,0,0,1,.22-.22h9.49a.2.2,0,0,1,.23.22V349C251.36,349.13,251.28,349.2,251.13,349.2Z"/><path d="M258.86,363.13a4.05,4.05,0,0,1-1.52-2.2,11.71,11.71,0,0,1-.25-2.8,11.37,11.37,0,0,1,.25-2.77,4.09,4.09,0,0,1,1.51-2.2,4.47,4.47,0,0,1,2.71-.81,4.37,4.37,0,0,1,2.69.83,4,4,0,0,1,1.51,2.18,6.45,6.45,0,0,1,.18,1.15c0,.43,0,1,0,1.62s0,1.24,0,1.66a6.48,6.48,0,0,1-.18,1.14,3.93,3.93,0,0,1-1.51,2.2,4.39,4.39,0,0,1-2.71.83A4.32,4.32,0,0,1,258.86,363.13Zm4.7-.88a2.93,2.93,0,0,0,1.08-1.73,10.89,10.89,0,0,0,.16-2.36,14.16,14.16,0,0,0-.13-2.37,3,3,0,0,0-1.09-1.74,3.19,3.19,0,0,0-2-.65,3.13,3.13,0,0,0-2,.65,3,3,0,0,0-1.08,1.74,18.72,18.72,0,0,0,0,4.73,3.05,3.05,0,0,0,1.08,1.75,3.48,3.48,0,0,0,4.05,0Z"/><path d="M281.1,352.53h.72a.2.2,0,0,1,.22.22v10.81a.2.2,0,0,1-.22.22h-.72a.19.19,0,0,1-.22-.22v-1.09c0-.05,0-.08-.05-.08s-.05,0-.06.05a3,3,0,0,1-1.27,1.12,4.29,4.29,0,0,1-1.86.38,4,4,0,0,1-2.75-1,3.45,3.45,0,0,1-1.09-2.7v-7.51a.19.19,0,0,1,.22-.22h.72a.19.19,0,0,1,.22.22v7.19a2.92,2.92,0,0,0,.79,2.15,2.85,2.85,0,0,0,2.11.8,3,3,0,0,0,2.19-.82,2.85,2.85,0,0,0,.83-2.13v-7.19A.19.19,0,0,1,281.1,352.53Z"/><path d="M297.59,353.42a3.71,3.71,0,0,1,1.06,2.77v7.37a.19.19,0,0,1-.22.22h-.74a.19.19,0,0,1-.22-.22v-7.15a3,3,0,0,0-.8-2.15,2.79,2.79,0,0,0-2.1-.84,2.93,2.93,0,0,0-2.17.82,2.85,2.85,0,0,0-.83,2.13v7.19a.19.19,0,0,1-.22.22h-.74a.2.2,0,0,1-.22-.22V352.75a.2.2,0,0,1,.22-.22h.74a.19.19,0,0,1,.22.22v1.1s0,.07,0,.07,0,0,.05,0a3.23,3.23,0,0,1,1.3-1.13,4.19,4.19,0,0,1,1.85-.39A3.76,3.76,0,0,1,297.59,353.42Z"/><path d="M313.91,348.15h.73a.2.2,0,0,1,.23.22v15.19c0,.15-.08.22-.23.22h-.73c-.15,0-.23-.07-.23-.22v-1.09c0-.05,0-.08,0-.08s0,0-.08,0a3.19,3.19,0,0,1-1.25,1.14,3.77,3.77,0,0,1-1.76.4,4.12,4.12,0,0,1-2.57-.8,4,4,0,0,1-1.43-2.17,4.83,4.83,0,0,1-.2-1.15c0-.42-.05-1-.05-1.66s0-1.22.05-1.65a6.4,6.4,0,0,1,.18-1.17,3.85,3.85,0,0,1,1.39-2.2,4.2,4.2,0,0,1,2.63-.81,3.77,3.77,0,0,1,1.76.4,3.19,3.19,0,0,1,1.25,1.14s0,.06.07.06,0,0,0-.08v-5.5A.2.2,0,0,1,313.91,348.15Zm-.3,11.7c0-.35.05-.91.05-1.67a14.34,14.34,0,0,0-.07-1.73,4.75,4.75,0,0,0-.22-1,2.75,2.75,0,0,0-.95-1.48,2.67,2.67,0,0,0-1.73-.57,2.94,2.94,0,0,0-1.81.57,2.8,2.8,0,0,0-1,1.46,3.44,3.44,0,0,0-.27,1,12.52,12.52,0,0,0-.08,1.76,16.55,16.55,0,0,0,.06,1.68,4.6,4.6,0,0,0,.23,1,2.56,2.56,0,0,0,1,1.52,3,3,0,0,0,1.88.58,2.64,2.64,0,0,0,1.75-.58,2.93,2.93,0,0,0,1-1.52A3.76,3.76,0,0,0,313.61,359.85Z"/><path d="M329.94,353.36a3.66,3.66,0,0,1,1,2.74v7.46c0,.15-.08.22-.23.22H330c-.15,0-.23-.07-.23-.22v-1.05a.09.09,0,0,0,0-.07s-.05,0-.08,0a3.55,3.55,0,0,1-1.51,1.11,5.22,5.22,0,0,1-2.06.38,4.3,4.3,0,0,1-2.61-.78,2.76,2.76,0,0,1-1.08-2.39,3.13,3.13,0,0,1,1.23-2.61,5.36,5.36,0,0,1,3.37-1h2.68a.08.08,0,0,0,.09-.09v-1a2.74,2.74,0,0,0-.7-2,2.82,2.82,0,0,0-2.15-.74,3.47,3.47,0,0,0-1.88.47,2,2,0,0,0-.92,1.25.23.23,0,0,1-.26.2l-.79-.11c-.16,0-.23-.09-.2-.18a2.85,2.85,0,0,1,1.31-1.94,4.9,4.9,0,0,1,2.76-.74A4.1,4.1,0,0,1,329.94,353.36Zm-1.19,8.88a2.18,2.18,0,0,0,1-1.92v-2a.08.08,0,0,0-.09-.09h-2.56a4.4,4.4,0,0,0-2.56.67,2.13,2.13,0,0,0-1,1.85,1.93,1.93,0,0,0,.76,1.66,3.19,3.19,0,0,0,1.94.56A4.35,4.35,0,0,0,328.75,362.24Z"/><path d="M343.38,353.53h-2.61a.08.08,0,0,0-.09.09v7.06a2.05,2.05,0,0,0,.52,1.6,2.47,2.47,0,0,0,1.65.45h.51c.15,0,.22.08.22.23v.6a.19.19,0,0,1-.22.22l-.67,0a3.82,3.82,0,0,1-2.36-.6,2.69,2.69,0,0,1-.81-2.21v-7.37a.08.08,0,0,0-.09-.09h-1.34a.19.19,0,0,1-.22-.22v-.56a.19.19,0,0,1,.22-.22h1.34a.08.08,0,0,0,.09-.09v-2.55a.19.19,0,0,1,.22-.22h.72a.19.19,0,0,1,.22.22v2.55a.08.08,0,0,0,.09.09h2.61c.15,0,.23.07.23.22v.56C343.61,353.46,343.53,353.53,343.38,353.53Z"/><path d="M351.51,350a1.2,1.2,0,1,1,.81.31A1.09,1.09,0,0,1,351.51,350Zm.16,13.58V352.73a.19.19,0,0,1,.22-.22h.74a.19.19,0,0,1,.22.22v10.81a.19.19,0,0,1-.22.22h-.74A.19.19,0,0,1,351.67,363.54Z"/><path d="M363,363.13a4.05,4.05,0,0,1-1.52-2.2,11.71,11.71,0,0,1-.25-2.8,11.37,11.37,0,0,1,.25-2.77,4.09,4.09,0,0,1,1.51-2.2,4.44,4.44,0,0,1,2.71-.81,4.37,4.37,0,0,1,2.69.83,4,4,0,0,1,1.51,2.18,6.45,6.45,0,0,1,.18,1.15c0,.43,0,1,0,1.62s0,1.24,0,1.66a6.48,6.48,0,0,1-.18,1.14,3.93,3.93,0,0,1-1.51,2.2,4.39,4.39,0,0,1-2.71.83A4.32,4.32,0,0,1,363,363.13Zm4.7-.88a2.93,2.93,0,0,0,1.08-1.73,10.89,10.89,0,0,0,.16-2.36,14.16,14.16,0,0,0-.13-2.37,3,3,0,0,0-1.09-1.74,3.19,3.19,0,0,0-2-.65,3.13,3.13,0,0,0-2,.65,3,3,0,0,0-1.08,1.74,18.72,18.72,0,0,0,0,4.73,3.05,3.05,0,0,0,1.08,1.75,3.48,3.48,0,0,0,4.05,0Z"/><path d="M385.29,353.42a3.71,3.71,0,0,1,1.06,2.77v7.37a.19.19,0,0,1-.22.22h-.74a.19.19,0,0,1-.22-.22v-7.15a3,3,0,0,0-.81-2.15,2.76,2.76,0,0,0-2.1-.84,2.92,2.92,0,0,0-2.16.82,2.85,2.85,0,0,0-.83,2.13v7.19a.19.19,0,0,1-.22.22h-.74a.19.19,0,0,1-.22-.22V352.75a.19.19,0,0,1,.22-.22h.74a.19.19,0,0,1,.22.22v1.1s0,.07,0,.07a0,0,0,0,0,.06,0,3.27,3.27,0,0,1,1.29-1.13,4.24,4.24,0,0,1,1.86-.39A3.79,3.79,0,0,1,385.29,353.42Z"/><line class="cls-9" x1="115.65" y1="357" x2="19.65" y2="357"/><line class="cls-9" x1="492.35" y1="357" x2="396.35" y2="357"/></svg>