<svg xmlns="http://www.w3.org/2000/svg" viewBox="0 0 56.86 103.48"><defs><style>.cls-1{fill:#00b480;}.cls-2{fill:#fff;}.cls-3{fill:#5493e8;}.cls-4{fill:#fcee00;}.cls-5{fill:#00bf00;}.cls-6{fill:#fbae3c;}</style></defs><g id="Layer_2" data-name="Layer 2"><g id="Layer_1-2" data-name="Layer 1"><path class="cls-1" d="M23.34,34.26H0v69.22H23.34c22.25,0,33.52-12.46,33.52-34.61S45.59,34.26,23.34,34.26Z"/><path class="cls-2" d="M28.22,62.84c2.94-1.37,3.86-4.13,4.65-6.92,1.35-4.76.93-9.67.73-15,9.1,16.34,4.2,44.48-8.3,59.59.32-3,.72-5.8.88-8.65.1-1.77,0-3.75-1.86-4.7s-3.7,0-5.3,1c-2.83,1.87-4.75,4.63-6.77,7.29-.39.5-.64,1.22-1.88,1.08,1.1-5.84,3.27-11.24,7.69-15.1,5.87-5.13,3.92-10.35-2.23-14.17C12.2,65,8.09,64.06,3.47,63.12c2-1.64,4-1.56,5.88-1.42A47.68,47.68,0,0,1,19.76,64c1.93.58,3.86,1.08,5.83.12A5.32,5.32,0,0,0,28.22,62.84Z"/><path class="cls-2" d="M28.22,62.84a5.32,5.32,0,0,1-2.63,1.25c-6.4-.12-9.46-2.28-10-7a7.7,7.7,0,0,1,3.19-7.58,26.35,26.35,0,0,0,4.9-4c1.56-1.84,2.68-.9,2.9.84A6.55,6.55,0,0,0,29,50.49C32.08,53.52,31.75,57.7,28.22,62.84Z"/><path class="cls-3" d="M39.34,47.48c-.32-3.13-.11-6,1.69-8.9,2.75-4.35,1.13-9.88-3.24-12.63a101.8,101.8,0,0,1-11.34-8c-1.44-1.19-1.09-1.77.43-2.35a40.2,40.2,0,0,0,4.94-2.17c1.68-.94,2.42-.38,3.09,1.22,1.41,3.32,2.91,6.59,4.47,9.83,1,2,2.17,3.86,3.12,5.85,1.55,3.24,1.78,6.41-.35,9.64A21,21,0,0,0,39.34,47.48Z"/><path class="cls-4" d="M41.89,26.07c-.65,0-.76-.5-.92-.85-1.77-3.9-3.49-7.83-5.29-11.71-.53-1.14-.31-1.75.86-2.23,2-.82,3.9-1.77,5.86-2.64a1.52,1.52,0,0,1,1-.19c.4.14.23.56.14.89-1.38,4.71-1.35,9.55-1.38,14.39A4.64,4.64,0,0,1,41.89,26.07Z"/><path class="cls-5" d="M28.48.81a48.34,48.34,0,0,1,4.61,9.75,1.13,1.13,0,0,1-.76,1.49Q29.15,13.53,25.94,15c-.7.31-1.4.22-1.15-.73C26,9.76,27.24,5.29,28.48.81Z"/><path class="cls-6" d="M30.35,0C33.83,3.07,38,4.87,42.24,6.38c1.11.39.86.94,0,1.33-2.19,1-4.41,2-6.61,2.93-.56.25-1.15.27-1.43-.36C32.76,7,31.35,3.66,29.93.35Z"/></g></g></svg>